<?xml version="1.0" encoding="utf-8"?>
<!-- Generator: Adobe Illustrator 27.3.1, SVG Export Plug-In . SVG Version: 6.00 Build 0)  -->
<svg version="1.1" id="Layer_1" xmlns="http://www.w3.org/2000/svg" xmlns:xlink="http://www.w3.org/1999/xlink" x="0px" y="0px"
	 width="123.854px" height="46.949px" viewBox="0 0 123.854 46.949" enable-background="new 0 0 123.854 46.949"
	 xml:space="preserve">
<circle fill="none" cx="417.695" cy="329.036" r="19.035"/>
<circle fill="none" cx="415.533" cy="329.036" r="11.617"/>
<path fill="none" stroke="#231F20" stroke-width="0.307" stroke-miterlimit="10" d="M282.795,318.138"/>
<g>
	<g>
		
			<rect x="10.22" y="4.702" transform="matrix(1 -0.0018 0.0018 1 -0.0234 0.0288)" fill="#FFFFFF" stroke="#1EADB9" stroke-width="0.1318" stroke-miterlimit="10" width="11.127" height="16.259"/>
	</g>
	<g>
		<linearGradient id="SVGID_1_" gradientUnits="userSpaceOnUse" x1="15.6571" y1="16.4238" x2="15.9121" y2="5.2418">
			<stop  offset="0" style="stop-color:#FFFFFF"/>
			<stop  offset="0.5733" style="stop-color:#00BBE7"/>
		</linearGradient>
		<polyline fill="url(#SVGID_1_)" points="10.822,5.752 10.821,5.37 20.727,5.352 20.745,16.433 16.401,16.441 		"/>
		<path fill="#004F37" d="M12.831,9.003l0.128,0.011l-0.063,0.004c0,0,0.71-0.061,0.934,0.324c0,0,0.6-0.195,0.69,0.292
			c0,0,0.609,0.052,0.643,0.592c0,0,0.862,0.558,1.339,0.392c0.477-0.166,0.962-0.232,0.962-0.232s0.303-0.568,1.278-0.277
			c0,0,0.854-0.449,1.139-0.3c0,0,0.167-0.588,0.774-0.456v1.649l-6.243-0.008"/>
		<path fill="#322C13" d="M10.825,5.712c0.45,0.524,1.211,1.642,1.211,1.642l0.689,1.261L12.62,8.44c0,0,0.129,0.28,0.296,0.563
			c0.02,0.035,0.041,0.069,0.062,0.103c0.085,0.137,0.177,0.268,0.264,0.358c0.286,0.297,0.662,0.62,0.662,0.62l0.593,0.909
			c0,0,1.124,1.308,3.108,1.524l-1.02,0.445l0.856,0.593c0,0-1.266,0.353-1.481,0.663c-0.215,0.31,1.872,0.321,1.872,0.321
			s1.803,0.458,1.535,0.957s-1.256-0.018-1.898,0.443c0,0-1.025-0.399-1.691,0.032l0.625,0.429l0-0.005l-5.561,0.01l-0.017-10.01
			l-0.001-0.69"/>
		
			<radialGradient id="SVGID_00000058560159106546044840000011771744851730463162_" cx="16.5174" cy="7.9042" r="0.8691" gradientTransform="matrix(1.0179 0 0 1.0641 0.1792 -0.6206)" gradientUnits="userSpaceOnUse">
			<stop  offset="0" style="stop-color:#FFFFFF"/>
			<stop  offset="1" style="stop-color:#F2DA1D"/>
		</radialGradient>
		<ellipse fill="url(#SVGID_00000058560159106546044840000011771744851730463162_)" cx="16.993" cy="7.79" rx="0.914" ry="0.893"/>
	</g>
	
		<rect x="10.821" y="5.37" fill="none" stroke="#1EADB9" stroke-width="0.1318" stroke-miterlimit="10" width="9.924" height="11.063"/>
	<g>
		<path fill="#96D7E1" stroke="#26ADBA" stroke-width="0.3856" stroke-miterlimit="10" d="M26.914,23.507h7.248v3.196h-2.095v10.794
			h-3.078V26.703h-2.075V23.507z"/>
		<path fill="#96D7E1" stroke="#26ADBA" stroke-width="0.3856" stroke-miterlimit="10" d="M38.143,27.857v1.613h0.04
			c0.695-1.258,1.427-1.886,2.195-1.886c0.114,0,0.271,0.021,0.471,0.062v2.986c-0.354-0.062-0.682-0.094-0.982-0.094
			c-1.069,0-1.604,0.723-1.604,2.169v4.789h-2.907v-9.641H38.143z"/>
		<path fill="#96D7E1" stroke="#26ADBA" stroke-width="0.3856" stroke-miterlimit="10" d="M47.015,37.497V36.23h-0.041
			c-0.354,0.545-0.697,0.946-1.027,1.205c-0.331,0.258-0.72,0.388-1.168,0.388c-0.875,0-1.574-0.469-2.095-1.404
			c-0.521-0.937-0.782-2.208-0.782-3.814c0-1.544,0.264-2.773,0.792-3.689c0.528-0.915,1.223-1.372,2.085-1.372
			c0.461,0,0.852,0.12,1.173,0.361s0.655,0.627,1.002,1.158h0.04v-1.205h2.917v9.641H47.015z M47.015,32.624
			c0-1.6-0.375-2.399-1.123-2.399c-0.755,0-1.133,0.8-1.133,2.399c0,1.663,0.391,2.494,1.173,2.494
			C46.653,35.118,47.015,34.287,47.015,32.624z"/>
		<path fill="#96D7E1" stroke="#26ADBA" stroke-width="0.3856" stroke-miterlimit="10" d="M51.256,27.857h2.847l1.153,5.219h0.041
			l1.153-5.219h2.887l-2.867,9.641h-2.366L51.256,27.857z"/>
		<path fill="#96D7E1" stroke="#26ADBA" stroke-width="0.3856" stroke-miterlimit="10" d="M64.619,34.553h2.456
			c-0.468,2.165-1.638,3.248-3.509,3.248c-1.17,0-2.095-0.464-2.777-1.394c-0.682-0.929-1.023-2.211-1.023-3.846
			c0-1.523,0.341-2.744,1.023-3.663c0.682-0.918,1.587-1.378,2.717-1.378c0.682,0,1.336,0.222,1.965,0.666
			c0.628,0.443,1.086,1.032,1.374,1.766c0.287,0.733,0.448,1.89,0.481,3.469h-4.862c0.041,1.432,0.421,2.148,1.143,2.148
			c0.247,0,0.468-0.095,0.662-0.283S64.579,34.853,64.619,34.553z M62.504,31.765h2.115c-0.02-0.678-0.11-1.179-0.271-1.504
			c-0.16-0.324-0.414-0.487-0.762-0.487c-0.388,0-0.665,0.157-0.832,0.472S62.504,31.067,62.504,31.765z"/>
		<path fill="#96D7E1" stroke="#26ADBA" stroke-width="0.3856" stroke-miterlimit="10" d="M69.11,22.732h2.917v14.766H69.11V22.732z
			"/>
		<path fill="#96D7E1" stroke="#26ADBA" stroke-width="0.3856" stroke-miterlimit="10" d="M78.444,23.507h3.168l1.654,6.183
			c0.314,1.223,0.528,2.268,0.642,3.134h0.041c0.1-0.762,0.21-1.387,0.331-1.876l1.845-7.44h3.248l-4.02,13.99h-2.817L78.444,23.507
			z"/>
		<path fill="#96D7E1" stroke="#26ADBA" stroke-width="0.3856" stroke-miterlimit="10" d="M90.685,24.964
			c0-0.447,0.15-0.828,0.451-1.143s0.662-0.472,1.083-0.472c0.428,0,0.792,0.157,1.093,0.472s0.451,0.695,0.451,1.143
			c0,0.439-0.15,0.819-0.451,1.137c-0.301,0.318-0.665,0.477-1.093,0.477c-0.414,0-0.773-0.158-1.078-0.477
			C90.837,25.784,90.685,25.404,90.685,24.964z M90.765,27.857h2.917v9.641h-2.917V27.857z"/>
		<path fill="#96D7E1" stroke="#26ADBA" stroke-width="0.3856" stroke-miterlimit="10" d="M96.319,34.385
			c0.996,0.615,1.714,0.922,2.155,0.922c0.241,0,0.441-0.064,0.602-0.193c0.161-0.13,0.241-0.285,0.241-0.467
			c0-0.195-0.067-0.339-0.201-0.43s-0.635-0.335-1.503-0.733c-0.695-0.321-1.197-0.7-1.504-1.137
			c-0.308-0.437-0.461-0.98-0.461-1.63c0-0.929,0.306-1.694,0.917-2.295c0.612-0.601,1.392-0.901,2.341-0.901
			c0.922,0,2.052,0.385,3.389,1.153l-1.123,2.169c-0.869-0.559-1.581-0.839-2.135-0.839c-0.481,0-0.722,0.203-0.722,0.608
			c0,0.195,0.088,0.365,0.266,0.508c0.177,0.144,0.5,0.303,0.967,0.477c0.875,0.322,1.512,0.706,1.91,1.153
			c0.397,0.447,0.596,1.013,0.596,1.697c0,0.979-0.314,1.782-0.942,2.41c-0.628,0.629-1.43,0.943-2.406,0.943
			c-1.056,0-2.186-0.388-3.389-1.163L96.319,34.385z"/>
		<path fill="#96D7E1" stroke="#26ADBA" stroke-width="0.3856" stroke-miterlimit="10" d="M104.199,25.288h2.917v2.568h1.133v2.535
			h-1.153v7.105h-2.897v-7.126h-1.103v-2.515h1.103V25.288z"/>
		<path fill="#96D7E1" stroke="#26ADBA" stroke-width="0.3856" stroke-miterlimit="10" d="M114.324,37.497V36.23h-0.041
			c-0.354,0.545-0.697,0.946-1.027,1.205c-0.331,0.258-0.72,0.388-1.168,0.388c-0.875,0-1.574-0.469-2.095-1.404
			c-0.521-0.937-0.782-2.208-0.782-3.814c0-1.544,0.264-2.773,0.792-3.689c0.528-0.915,1.223-1.372,2.085-1.372
			c0.461,0,0.852,0.12,1.173,0.361s0.655,0.627,1.002,1.158h0.04v-1.205h2.917v9.641H114.324z M114.324,32.624
			c0-1.6-0.375-2.399-1.123-2.399c-0.755,0-1.133,0.8-1.133,2.399c0,1.663,0.391,2.494,1.173,2.494
			C113.963,35.118,114.324,34.287,114.324,32.624z"/>
	</g>
	<path fill="#96D7E3" d="M21.168,40.189H8.322c-1.267,0-2.304-1.037-2.304-2.304V20.933c0-1.267,1.037-2.304,2.304-2.304l12.845,0
		c1.267,0,2.304,1.037,2.304,2.304v16.951C23.472,39.152,22.435,40.189,21.168,40.189z"/>
	<ellipse fill="#26ADBA" cx="9.328" cy="26.263" rx="0.853" ry="0.882"/>
	<ellipse fill="#26ADBA" cx="17.284" cy="31.141" rx="5.146" ry="5.32"/>
	<ellipse fill="#96D7E3" cx="17.284" cy="31.141" rx="3.394" ry="3.508"/>
	<ellipse fill="#26ADBA" cx="17.284" cy="31.141" rx="1.942" ry="2.008"/>
	<path fill="none" stroke="#26ADBA" stroke-width="0.0548" stroke-miterlimit="10" d="M6.018,21.848c0,0-1.853,3.295-2.074,5.104"/>
	<path fill="#26ADBA" d="M5.052,32.408c0,0-0.37-2.353-0.442-3.183c-0.016-0.183-0.028-0.33-0.035-0.424
		c-0.006-0.074-0.009-0.115-0.009-0.115v-0.404c0.113-0.141,0.189-0.318,0.189-0.517c0-0.449-0.346-0.813-0.773-0.813
		S3.21,27.316,3.21,27.765c0,0.383,0.257,0.689,0.595,0.775c-0.029,0.554-0.134,1.259-0.452,2.018
		C3.243,30.82,3.122,31.055,3,31.262c-0.107,0.224-1.433,3.025-1.423,4.296c0.003,0.356,0.099,0.654,0.099,0.654
		c0.199,0.614,0.648,0.978,0.905,1.152c0.752,0.246,1.194,0.107,1.434-0.023C5.286,36.651,5.277,33.84,5.052,32.408z M3.621,36.827
		C3.456,36.88,3.26,36.859,3.11,36.76c-0.938-0.617,0.204-4.045,0.323-4.396c0.212-1.152,0.424-2.305,0.636-3.457l0.067-0.362
		c0.078-0.017,0.15-0.041,0.217-0.08L4.213,30.45l0.132,1.959C4.346,32.408,4.726,36.47,3.621,36.827z"/>
	<path fill="#96D7E3" d="M17.284,30.646c-0.001-0.317,0.262-0.533,0.483-0.498c0.219,0.034,0.408,0.317,0.324,0.617
		c-0.095,0.258-0.234,0.566-0.443,0.888c-0.122,0.188-0.246,0.349-0.364,0.485h0c-0.118-0.136-0.243-0.297-0.364-0.485
		c-0.209-0.322-0.348-0.631-0.443-0.888c-0.084-0.3,0.105-0.583,0.324-0.617C17.022,30.113,17.284,30.329,17.284,30.646"/>
	<path fill="#26ADBA" d="M8.474,24.073L8.474,24.073c-0.676,0-1.229-0.553-1.229-1.229v-1.992c0-0.676,0.553-1.229,1.229-1.229h0
		c0.676,0,1.229,0.553,1.229,1.229v1.992C9.703,23.519,9.15,24.073,8.474,24.073z"/>
</g>
<g>
</g>
<g>
</g>
<g>
</g>
<g>
</g>
<g>
</g>
<g>
</g>
</svg>
